<svg width="52" height="39" viewBox="0 0 52 39" fill="none" xmlns="http://www.w3.org/2000/svg">
<path d="M50.2264 3.1027L47.1071 1.07506C46.9968 1.00326 46.8765 0.960329 46.754 0.948929C46.6309 0.937437 46.5071 0.957663 46.3903 1.00832C46.2736 1.05898 46.1653 1.13914 46.0719 1.24413C45.9792 1.34922 45.9028 1.4771 45.8476 1.62052L35.6811 28.0578L29.8037 14.1646L31.7331 4.11932C31.7636 3.96359 31.7702 3.8016 31.7523 3.64255C31.7345 3.48359 31.6928 3.3307 31.6294 3.19271C31.566 3.0548 31.4822 2.93446 31.383 2.83875C31.2838 2.74305 31.1709 2.67373 31.051 2.63493L27.6679 1.53511C27.5483 1.49594 27.424 1.48785 27.302 1.51121C27.18 1.53456 27.0628 1.58898 26.957 1.67136C26.8512 1.75373 26.7589 1.86249 26.6854 1.99129C26.612 2.1201 26.5588 2.26646 26.5289 2.42201L22.0792 25.569L13.5858 3.48074C13.2558 2.61838 12.7303 1.90846 12.0802 1.44676C11.43 0.98506 10.6866 0.793925 9.95028 0.8991C9.21393 1.00427 8.52017 1.4007 7.96263 2.03487C7.40509 2.66895 7.01059 3.51034 6.83241 4.44524L1.24031 33.5333C1.21017 33.6888 1.20394 33.8504 1.22191 34.0091C1.23989 34.1677 1.28171 34.3202 1.34511 34.4578C1.40845 34.5954 1.49202 34.7154 1.59108 34.8109C1.69015 34.9063 1.80274 34.9755 1.9224 35.0144L5.30287 36.1153C5.42246 36.1544 5.54679 36.1626 5.66879 36.1392C5.79078 36.1158 5.9081 36.0614 6.01389 35.979C6.11968 35.8966 6.21196 35.7879 6.28541 35.6591C6.35886 35.5303 6.412 35.3839 6.44194 35.2284L10.8916 12.087L19.3851 34.1751C19.6836 34.9588 20.1449 35.6182 20.7168 36.0786C21.2885 36.539 21.948 36.7822 22.6206 36.7804C22.7551 36.7802 22.8894 36.7706 23.0231 36.7516C23.7593 36.6492 24.4534 36.2547 25.0112 35.6217C25.569 34.9886 25.9635 34.1476 26.1409 33.2129L27.8896 24.1222L32.5856 35.2062C32.8974 35.9455 33.3565 36.5622 33.9149 36.9913C34.4732 37.4205 35.1093 37.6463 35.7582 37.6452H35.8254C36.4864 37.6298 37.131 37.3791 37.6893 36.9202C38.2484 36.4615 38.6991 35.8122 38.9935 35.0432L50.646 4.74127C50.7012 4.59794 50.7344 4.44174 50.7436 4.28177C50.7521 4.12171 50.7366 3.96101 50.6976 3.80886C50.6587 3.65661 50.5972 3.51586 50.5165 3.39469C50.4351 3.27352 50.3368 3.17432 50.2264 3.1027Z" fill="black" stroke="#737373" stroke-miterlimit="10"/>
</svg>
