<svg width="236" height="62" viewBox="0 0 236 62" fill="none" xmlns="http://www.w3.org/2000/svg">
<path d="M131.729 40H129.787L127.019 33.3623L125.863 40H123.86L125.59 30.0469H127.524L130.3 36.6982L131.455 30.0469H133.451L131.729 40ZM137.074 32.46C137.762 32.4782 138.318 32.7539 138.742 33.2871L139.467 29.5H141.401L139.583 40H137.86L137.97 39.207C137.418 39.8496 136.776 40.1618 136.042 40.1436C135.582 40.139 135.178 40.0182 134.832 39.7812C134.486 39.5443 134.217 39.2048 134.025 38.7627C133.839 38.3161 133.736 37.8193 133.718 37.2725C133.704 36.9854 133.711 36.7074 133.738 36.4385L133.779 36.1309C133.889 35.3743 134.098 34.709 134.408 34.1348C134.723 33.5605 135.105 33.1344 135.557 32.8564C136.012 32.5785 136.518 32.4463 137.074 32.46ZM135.673 36.4385C135.636 36.7848 135.625 37.0765 135.639 37.3135C135.684 38.1156 136.008 38.5234 136.609 38.5371C137.152 38.5599 137.623 38.3047 138.024 37.7715L138.551 34.832C138.373 34.3444 138.018 34.0892 137.484 34.0664C137.015 34.0527 136.623 34.235 136.309 34.6133C135.999 34.987 135.787 35.5954 135.673 36.4385ZM144.642 40.1367C143.994 40.1322 143.42 39.9749 142.919 39.665C142.422 39.3506 142.051 38.9222 141.805 38.3799C141.559 37.833 141.463 37.2314 141.518 36.5752L141.538 36.3018C141.606 35.5817 141.816 34.9209 142.167 34.3193C142.518 33.7178 142.969 33.2552 143.521 32.9316C144.072 32.6035 144.683 32.4486 145.353 32.4668C146.305 32.485 147.025 32.8359 147.513 33.5195C148.005 34.1986 148.192 35.0599 148.073 36.1035L147.964 36.9443H143.432C143.413 37.4229 143.53 37.8057 143.78 38.0928C144.031 38.3799 144.373 38.528 144.806 38.5371C145.507 38.5553 146.123 38.2842 146.651 37.7236L147.533 38.8174C147.255 39.2367 146.854 39.5648 146.33 39.8018C145.806 40.0342 145.243 40.1458 144.642 40.1367ZM145.257 34.0596C144.901 34.0505 144.585 34.1621 144.307 34.3945C144.033 34.627 143.787 35.0303 143.568 35.6045H146.221L146.262 35.4268C146.289 35.2445 146.291 35.0713 146.269 34.9072C146.223 34.6429 146.111 34.4378 145.934 34.292C145.756 34.1416 145.53 34.0641 145.257 34.0596ZM152.824 37.915C152.897 37.5505 152.644 37.2861 152.065 37.1221L151.443 36.9648C149.971 36.5592 149.256 35.8438 149.297 34.8184C149.32 34.1211 149.627 33.5537 150.22 33.1162C150.817 32.6742 151.535 32.4577 152.373 32.4668C153.207 32.4759 153.882 32.6969 154.396 33.1299C154.911 33.5628 155.174 34.1393 155.183 34.8594L153.269 34.8525C153.278 34.2191 152.963 33.8978 152.325 33.8887C152.024 33.8887 151.762 33.9639 151.539 34.1143C151.32 34.2646 151.186 34.4674 151.136 34.7227C151.067 35.0872 151.343 35.3447 151.963 35.4951L152.236 35.5566C152.865 35.707 153.346 35.8802 153.679 36.0762C154.011 36.2676 154.267 36.5068 154.444 36.7939C154.627 37.0811 154.711 37.4251 154.697 37.8262C154.684 38.2956 154.531 38.7057 154.239 39.0566C153.952 39.4076 153.556 39.6787 153.05 39.8701C152.549 40.0615 152.02 40.1504 151.464 40.1367C150.644 40.1276 149.96 39.8929 149.413 39.4326C148.866 38.9678 148.588 38.3685 148.579 37.6348L150.397 37.6484C150.416 38.3548 150.794 38.7126 151.532 38.7217C151.888 38.7217 152.179 38.6488 152.407 38.5029C152.64 38.3571 152.779 38.1611 152.824 37.915ZM159.824 32.4668C160.476 32.4759 161.036 32.6445 161.506 32.9727C161.98 33.2962 162.326 33.7451 162.545 34.3193C162.768 34.889 162.848 35.5225 162.784 36.2197C162.679 37.3955 162.269 38.348 161.554 39.0771C160.843 39.8018 159.963 40.1549 158.915 40.1367C158.272 40.1276 157.716 39.9635 157.247 39.6445C156.778 39.321 156.431 38.8743 156.208 38.3047C155.985 37.735 155.905 37.1061 155.969 36.418C156.087 35.1966 156.502 34.2259 157.213 33.5059C157.924 32.7858 158.794 32.4395 159.824 32.4668ZM157.876 37.1221C157.885 37.5596 157.988 37.9059 158.184 38.1611C158.38 38.4118 158.655 38.5417 159.011 38.5508C159.603 38.569 160.068 38.2979 160.405 37.7373C160.743 37.1722 160.9 36.4316 160.877 35.5156C160.859 35.0781 160.752 34.7295 160.556 34.4697C160.364 34.2054 160.089 34.0687 159.729 34.0596C159.154 34.0413 158.694 34.3125 158.348 34.873C158.006 35.429 157.849 36.1787 157.876 37.1221ZM171.493 37.1084L173.893 30.0469H175.937L172.238 40H170.222L169.695 33.3691L167.091 40H165.074L164.486 30.0469H166.441L166.64 37.0742L169.319 30.0469H171.021L171.493 37.1084ZM179.307 32.4668C179.958 32.4759 180.519 32.6445 180.988 32.9727C181.462 33.2962 181.809 33.7451 182.027 34.3193C182.251 34.889 182.33 35.5225 182.267 36.2197C182.162 37.3955 181.752 38.348 181.036 39.0771C180.325 39.8018 179.446 40.1549 178.397 40.1367C177.755 40.1276 177.199 39.9635 176.729 39.6445C176.26 39.321 175.914 38.8743 175.69 38.3047C175.467 37.735 175.387 37.1061 175.451 36.418C175.57 35.1966 175.984 34.2259 176.695 33.5059C177.406 32.7858 178.277 32.4395 179.307 32.4668ZM177.358 37.1221C177.368 37.5596 177.47 37.9059 177.666 38.1611C177.862 38.4118 178.138 38.5417 178.493 38.5508C179.086 38.569 179.55 38.2979 179.888 37.7373C180.225 37.1722 180.382 36.4316 180.359 35.5156C180.341 35.0781 180.234 34.7295 180.038 34.4697C179.847 34.2054 179.571 34.0687 179.211 34.0596C178.637 34.0413 178.176 34.3125 177.83 34.873C177.488 35.429 177.331 36.1787 177.358 37.1221ZM187.059 32.4668C187.71 32.4759 188.271 32.6445 188.74 32.9727C189.214 33.2962 189.561 33.7451 189.779 34.3193C190.003 34.889 190.082 35.5225 190.019 36.2197C189.914 37.3955 189.504 38.348 188.788 39.0771C188.077 39.8018 187.198 40.1549 186.149 40.1367C185.507 40.1276 184.951 39.9635 184.481 39.6445C184.012 39.321 183.666 38.8743 183.442 38.3047C183.219 37.735 183.139 37.1061 183.203 36.418C183.322 35.1966 183.736 34.2259 184.447 33.5059C185.158 32.7858 186.029 32.4395 187.059 32.4668ZM185.11 37.1221C185.119 37.5596 185.222 37.9059 185.418 38.1611C185.614 38.4118 185.89 38.5417 186.245 38.5508C186.838 38.569 187.302 38.2979 187.64 37.7373C187.977 37.1722 188.134 36.4316 188.111 35.5156C188.093 35.0781 187.986 34.7295 187.79 34.4697C187.599 34.2054 187.323 34.0687 186.963 34.0596C186.389 34.0413 185.928 34.3125 185.582 34.873C185.24 35.429 185.083 36.1787 185.11 37.1221ZM194.25 32.46C194.938 32.4782 195.494 32.7539 195.918 33.2871L196.643 29.5H198.577L196.759 40H195.036L195.146 39.207C194.594 39.8496 193.951 40.1618 193.218 40.1436C192.757 40.139 192.354 40.0182 192.008 39.7812C191.661 39.5443 191.393 39.2048 191.201 38.7627C191.014 38.3161 190.912 37.8193 190.894 37.2725C190.88 36.9854 190.887 36.7074 190.914 36.4385L190.955 36.1309C191.064 35.3743 191.274 34.709 191.584 34.1348C191.898 33.5605 192.281 33.1344 192.732 32.8564C193.188 32.5785 193.694 32.4463 194.25 32.46ZM192.849 36.4385C192.812 36.7848 192.801 37.0765 192.814 37.3135C192.86 38.1156 193.184 38.5234 193.785 38.5371C194.327 38.5599 194.799 38.3047 195.2 37.7715L195.727 34.832C195.549 34.3444 195.193 34.0892 194.66 34.0664C194.191 34.0527 193.799 34.235 193.484 34.6133C193.174 34.987 192.963 35.5954 192.849 36.4385Z" fill="white"/>
<g clip-path="url(#clip0)">
<path d="M123.266 16.4275L118.858 14.222C118.702 14.1439 118.532 14.0972 118.359 14.0848C118.185 14.0723 118.01 14.0943 117.845 14.1494C117.68 14.2045 117.527 14.2917 117.395 14.4059C117.264 14.5202 117.156 14.6593 117.078 14.8153L102.711 43.5716L94.4052 28.4597L97.1318 17.5333C97.1749 17.3639 97.1842 17.1877 97.159 17.0147C97.1338 16.8418 97.0748 16.6755 96.9852 16.5254C96.8956 16.3754 96.7773 16.2445 96.6371 16.1404C96.4968 16.0363 96.3373 15.9609 96.1679 15.9187L91.387 14.7224C91.218 14.6798 91.0423 14.671 90.8699 14.6964C90.6975 14.7218 90.5318 14.781 90.3823 14.8706C90.2328 14.9602 90.1024 15.0785 89.9986 15.2186C89.8948 15.3587 89.8196 15.5179 89.7773 15.6871L83.4892 40.8645L71.4865 16.8387C71.0202 15.9007 70.2775 15.1285 69.3588 14.6263C68.44 14.1241 67.3895 13.9162 66.3489 14.0306C65.3083 14.145 64.3279 14.5762 63.54 15.266C62.7521 15.9557 62.1946 16.8709 61.9428 17.8878L54.0402 49.5274C53.9976 49.6966 53.9888 49.8724 54.0142 50.045C54.0396 50.2175 54.0987 50.3834 54.1883 50.533C54.2778 50.6827 54.3959 50.8132 54.5359 50.9171C54.6759 51.0209 54.835 51.0962 55.0041 51.1385L59.7813 52.3359C59.9503 52.3785 60.126 52.3874 60.2984 52.3619C60.4708 52.3365 60.6366 52.2773 60.7861 52.1877C60.9356 52.0981 61.066 51.9798 61.1698 51.8397C61.2736 51.6996 61.3487 51.5404 61.391 51.3712L67.6791 26.1999L79.6819 50.2256C80.1038 51.078 80.7557 51.7952 81.5638 52.296C82.3718 52.7968 83.3038 53.0613 84.2543 53.0594C84.4443 53.0592 84.6341 53.0487 84.823 53.0281C85.8634 52.9167 86.8443 52.4876 87.6326 51.799C88.4209 51.1104 88.9783 50.1956 89.2291 49.1789L91.7003 39.2908L98.3366 51.3471C98.7772 52.1513 99.4259 52.822 100.215 53.2888C101.004 53.7556 101.903 54.0012 102.82 54H102.915C103.849 53.9833 104.76 53.7106 105.549 53.2115C106.339 52.7125 106.976 52.0063 107.392 51.1698L123.859 18.2098C123.937 18.0539 123.984 17.884 123.997 17.71C124.009 17.5359 123.987 17.3611 123.932 17.1956C123.877 17.03 123.79 16.8769 123.676 16.7451C123.561 16.6133 123.422 16.5054 123.266 16.4275Z" fill="black" stroke="#737373" stroke-miterlimit="10"/>
</g>
<defs>
<clipPath id="clip0">
<rect width="130" height="74" fill="white" transform="translate(0 -20)"/>
</clipPath>
</defs>
</svg>
